solid DCY4
facet normal 0 0 -1
  outer loop
    vertex -91 -45.5101430169087 67
    vertex -87.4201337265282 -44.7980633415498 67
    vertex -87.35 -45.5101430169087 67
  endloop
endfacet
facet normal 0 0 -1
  outer loop
    vertex -91 -45.5101430169087 67
    vertex -87.6278397063338 -44.1133484887761 67
    vertex -87.4201337265282 -44.7980633415498 67
  endloop
endfacet
facet normal 0 0 -1
  outer loop
    vertex -91 -45.5101430169087 67
    vertex -87.9651359150957 -43.4823116663871 67
    vertex -87.6278397063338 -44.1133484887761 67
  endloop
endfacet
facet normal 0 0 -1
  outer loop
    vertex -91 -45.5101430169087 67
    vertex -88.4190602486691 -42.9292032655778 67
    vertex -87.9651359150957 -43.4823116663871 67
  endloop
endfacet
facet normal 0 0 -1
  outer loop
    vertex -91 -45.5101430169087 67
    vertex -88.9721686494784 -42.4752789320044 67
    vertex -88.4190602486691 -42.9292032655778 67
  endloop
endfacet
facet normal 0 0 -1
  outer loop
    vertex -91 -45.5101430169087 67
    vertex -89.6032054718674 -42.1379827232425 67
    vertex -88.9721686494784 -42.4752789320044 67
  endloop
endfacet
facet normal 0 0 -1
  outer loop
    vertex -91 -45.5101430169087 67
    vertex -90.2879203246411 -41.9302767434369 67
    vertex -89.6032054718674 -42.1379827232425 67
  endloop
endfacet
facet normal 0 0 -1
  outer loop
    vertex -91 -45.5101430169087 67
    vertex -91 -41.8601430169087 67
    vertex -90.2879203246411 -41.9302767434369 67
  endloop
endfacet
facet normal 0 0 -1
  outer loop
    vertex -91 -45.5101430169087 67
    vertex -91.7120796753589 -41.9302767434369 67
    vertex -91 -41.8601430169087 67
  endloop
endfacet
facet normal 0 0 -1
  outer loop
    vertex -91 -45.5101430169087 67
    vertex -92.3967945281326 -42.1379827232425 67
    vertex -91.7120796753589 -41.9302767434369 67
  endloop
endfacet
facet normal 0 0 -1
  outer loop
    vertex -91 -45.5101430169087 67
    vertex -93.0278313505216 -42.4752789320044 67
    vertex -92.3967945281326 -42.1379827232425 67
  endloop
endfacet
facet normal 0 0 -1
  outer loop
    vertex -91 -45.5101430169087 67
    vertex -93.5809397513309 -42.9292032655778 67
    vertex -93.0278313505216 -42.4752789320044 67
  endloop
endfacet
facet normal 0 0 -1
  outer loop
    vertex -91 -45.5101430169087 67
    vertex -94.0348640849043 -43.4823116663871 67
    vertex -93.5809397513309 -42.9292032655778 67
  endloop
endfacet
facet normal 0 0 -1
  outer loop
    vertex -91 -45.5101430169087 67
    vertex -94.3721602936662 -44.1133484887761 67
    vertex -94.0348640849043 -43.4823116663871 67
  endloop
endfacet
facet normal 0 0 -1
  outer loop
    vertex -91 -45.5101430169087 67
    vertex -94.5798662734718 -44.7980633415498 67
    vertex -94.3721602936662 -44.1133484887761 67
  endloop
endfacet
facet normal 0 0 -1
  outer loop
    vertex -91 -45.5101430169087 67
    vertex -94.65 -45.5101430169087 67
    vertex -94.5798662734718 -44.7980633415498 67
  endloop
endfacet
facet normal 0 0 -1
  outer loop
    vertex -91 -45.5101430169087 67
    vertex -94.5798662734718 -46.2222226922675 67
    vertex -94.65 -45.5101430169087 67
  endloop
endfacet
facet normal 0 0 -1
  outer loop
    vertex -91 -45.5101430169087 67
    vertex -94.3721602936662 -46.9069375450413 67
    vertex -94.5798662734718 -46.2222226922675 67
  endloop
endfacet
facet normal 0 0 -1
  outer loop
    vertex -91 -45.5101430169087 67
    vertex -94.0348640849043 -47.5379743674302 67
    vertex -94.3721602936662 -46.9069375450413 67
  endloop
endfacet
facet normal 0 0 -1
  outer loop
    vertex -91 -45.5101430169087 67
    vertex -93.5809397513309 -48.0910827682396 67
    vertex -94.0348640849043 -47.5379743674302 67
  endloop
endfacet
facet normal 0 0 -1
  outer loop
    vertex -91 -45.5101430169087 67
    vertex -93.0278313505216 -48.545007101813 67
    vertex -93.5809397513309 -48.0910827682396 67
  endloop
endfacet
facet normal 0 0 -1
  outer loop
    vertex -91 -45.5101430169087 67
    vertex -92.3967945281326 -48.8823033105749 67
    vertex -93.0278313505216 -48.545007101813 67
  endloop
endfacet
facet normal 0 0 -1
  outer loop
    vertex -91 -45.5101430169087 67
    vertex -91.7120796753589 -49.0900092903805 67
    vertex -92.3967945281326 -48.8823033105749 67
  endloop
endfacet
facet normal 0 0 -1
  outer loop
    vertex -91 -45.5101430169087 67
    vertex -91 -49.1601430169087 67
    vertex -91.7120796753589 -49.0900092903805 67
  endloop
endfacet
facet normal 0 0 -1
  outer loop
    vertex -91 -45.5101430169087 67
    vertex -90.2879203246411 -49.0900092903805 67
    vertex -91 -49.1601430169087 67
  endloop
endfacet
facet normal 0 0 -1
  outer loop
    vertex -91 -45.5101430169087 67
    vertex -89.6032054718674 -48.8823033105749 67
    vertex -90.2879203246411 -49.0900092903805 67
  endloop
endfacet
facet normal 0 0 -1
  outer loop
    vertex -91 -45.5101430169087 67
    vertex -88.9721686494784 -48.545007101813 67
    vertex -89.6032054718674 -48.8823033105749 67
  endloop
endfacet
facet normal 0 0 -1
  outer loop
    vertex -91 -45.5101430169087 67
    vertex -88.4190602486691 -48.0910827682396 67
    vertex -88.9721686494784 -48.545007101813 67
  endloop
endfacet
facet normal 0 0 -1
  outer loop
    vertex -91 -45.5101430169087 67
    vertex -87.9651359150957 -47.5379743674302 67
    vertex -88.4190602486691 -48.0910827682396 67
  endloop
endfacet
facet normal 0 0 -1
  outer loop
    vertex -91 -45.5101430169087 67
    vertex -87.6278397063338 -46.9069375450413 67
    vertex -87.9651359150957 -47.5379743674302 67
  endloop
endfacet
facet normal 0 0 -1
  outer loop
    vertex -91 -45.5101430169087 67
    vertex -87.4201337265282 -46.2222226922675 67
    vertex -87.6278397063338 -46.9069375450413 67
  endloop
endfacet
facet normal 0 0 -1
  outer loop
    vertex -91 -45.5101430169087 67
    vertex -87.35 -45.5101430169087 67
    vertex -87.4201337265282 -46.2222226922675 67
  endloop
endfacet
facet normal 0 0 1
  outer loop
    vertex -91 -45.5101430169087 67.1
    vertex -87.35 -45.5101430169087 67.1
    vertex -87.4201337265282 -44.7980633415498 67.1
  endloop
endfacet
facet normal 0 0 1
  outer loop
    vertex -91 -45.5101430169087 67.1
    vertex -87.4201337265282 -44.7980633415498 67.1
    vertex -87.6278397063338 -44.1133484887761 67.1
  endloop
endfacet
facet normal 0 0 1
  outer loop
    vertex -91 -45.5101430169087 67.1
    vertex -87.6278397063338 -44.1133484887761 67.1
    vertex -87.9651359150957 -43.4823116663871 67.1
  endloop
endfacet
facet normal 0 0 1
  outer loop
    vertex -91 -45.5101430169087 67.1
    vertex -87.9651359150957 -43.4823116663871 67.1
    vertex -88.4190602486691 -42.9292032655778 67.1
  endloop
endfacet
facet normal 0 0 1
  outer loop
    vertex -91 -45.5101430169087 67.1
    vertex -88.4190602486691 -42.9292032655778 67.1
    vertex -88.9721686494784 -42.4752789320044 67.1
  endloop
endfacet
facet normal 0 0 1
  outer loop
    vertex -91 -45.5101430169087 67.1
    vertex -88.9721686494784 -42.4752789320044 67.1
    vertex -89.6032054718674 -42.1379827232425 67.1
  endloop
endfacet
facet normal 0 0 1
  outer loop
    vertex -91 -45.5101430169087 67.1
    vertex -89.6032054718674 -42.1379827232425 67.1
    vertex -90.2879203246411 -41.9302767434369 67.1
  endloop
endfacet
facet normal 0 0 1
  outer loop
    vertex -91 -45.5101430169087 67.1
    vertex -90.2879203246411 -41.9302767434369 67.1
    vertex -91 -41.8601430169087 67.1
  endloop
endfacet
facet normal 0 0 1
  outer loop
    vertex -91 -45.5101430169087 67.1
    vertex -91 -41.8601430169087 67.1
    vertex -91.7120796753589 -41.9302767434369 67.1
  endloop
endfacet
facet normal 0 0 1
  outer loop
    vertex -91 -45.5101430169087 67.1
    vertex -91.7120796753589 -41.9302767434369 67.1
    vertex -92.3967945281326 -42.1379827232425 67.1
  endloop
endfacet
facet normal 0 0 1
  outer loop
    vertex -91 -45.5101430169087 67.1
    vertex -92.3967945281326 -42.1379827232425 67.1
    vertex -93.0278313505216 -42.4752789320044 67.1
  endloop
endfacet
facet normal 0 0 1
  outer loop
    vertex -91 -45.5101430169087 67.1
    vertex -93.0278313505216 -42.4752789320044 67.1
    vertex -93.5809397513309 -42.9292032655778 67.1
  endloop
endfacet
facet normal 0 0 1
  outer loop
    vertex -91 -45.5101430169087 67.1
    vertex -93.5809397513309 -42.9292032655778 67.1
    vertex -94.0348640849043 -43.4823116663871 67.1
  endloop
endfacet
facet normal 0 0 1
  outer loop
    vertex -91 -45.5101430169087 67.1
    vertex -94.0348640849043 -43.4823116663871 67.1
    vertex -94.3721602936662 -44.1133484887761 67.1
  endloop
endfacet
facet normal 0 0 1
  outer loop
    vertex -91 -45.5101430169087 67.1
    vertex -94.3721602936662 -44.1133484887761 67.1
    vertex -94.5798662734718 -44.7980633415498 67.1
  endloop
endfacet
facet normal 0 0 1
  outer loop
    vertex -91 -45.5101430169087 67.1
    vertex -94.5798662734718 -44.7980633415498 67.1
    vertex -94.65 -45.5101430169087 67.1
  endloop
endfacet
facet normal 0 0 1
  outer loop
    vertex -91 -45.5101430169087 67.1
    vertex -94.65 -45.5101430169087 67.1
    vertex -94.5798662734718 -46.2222226922675 67.1
  endloop
endfacet
facet normal 0 0 1
  outer loop
    vertex -91 -45.5101430169087 67.1
    vertex -94.5798662734718 -46.2222226922675 67.1
    vertex -94.3721602936662 -46.9069375450413 67.1
  endloop
endfacet
facet normal 0 0 1
  outer loop
    vertex -91 -45.5101430169087 67.1
    vertex -94.3721602936662 -46.9069375450413 67.1
    vertex -94.0348640849043 -47.5379743674302 67.1
  endloop
endfacet
facet normal 0 0 1
  outer loop
    vertex -91 -45.5101430169087 67.1
    vertex -94.0348640849043 -47.5379743674302 67.1
    vertex -93.5809397513309 -48.0910827682396 67.1
  endloop
endfacet
facet normal 0 0 1
  outer loop
    vertex -91 -45.5101430169087 67.1
    vertex -93.5809397513309 -48.0910827682396 67.1
    vertex -93.0278313505216 -48.545007101813 67.1
  endloop
endfacet
facet normal 0 0 1
  outer loop
    vertex -91 -45.5101430169087 67.1
    vertex -93.0278313505216 -48.545007101813 67.1
    vertex -92.3967945281326 -48.8823033105749 67.1
  endloop
endfacet
facet normal 0 0 1
  outer loop
    vertex -91 -45.5101430169087 67.1
    vertex -92.3967945281326 -48.8823033105749 67.1
    vertex -91.7120796753589 -49.0900092903805 67.1
  endloop
endfacet
facet normal 0 0 1
  outer loop
    vertex -91 -45.5101430169087 67.1
    vertex -91.7120796753589 -49.0900092903805 67.1
    vertex -91 -49.1601430169087 67.1
  endloop
endfacet
facet normal 0 0 1
  outer loop
    vertex -91 -45.5101430169087 67.1
    vertex -91 -49.1601430169087 67.1
    vertex -90.2879203246411 -49.0900092903805 67.1
  endloop
endfacet
facet normal 0 0 1
  outer loop
    vertex -91 -45.5101430169087 67.1
    vertex -90.2879203246411 -49.0900092903805 67.1
    vertex -89.6032054718674 -48.8823033105749 67.1
  endloop
endfacet
facet normal 0 0 1
  outer loop
    vertex -91 -45.5101430169087 67.1
    vertex -89.6032054718674 -48.8823033105749 67.1
    vertex -88.9721686494784 -48.545007101813 67.1
  endloop
endfacet
facet normal 0 0 1
  outer loop
    vertex -91 -45.5101430169087 67.1
    vertex -88.9721686494784 -48.545007101813 67.1
    vertex -88.4190602486691 -48.0910827682396 67.1
  endloop
endfacet
facet normal 0 0 1
  outer loop
    vertex -91 -45.5101430169087 67.1
    vertex -88.4190602486691 -48.0910827682396 67.1
    vertex -87.9651359150957 -47.5379743674302 67.1
  endloop
endfacet
facet normal 0 0 1
  outer loop
    vertex -91 -45.5101430169087 67.1
    vertex -87.9651359150957 -47.5379743674302 67.1
    vertex -87.6278397063338 -46.9069375450413 67.1
  endloop
endfacet
facet normal 0 0 1
  outer loop
    vertex -91 -45.5101430169087 67.1
    vertex -87.6278397063338 -46.9069375450413 67.1
    vertex -87.4201337265282 -46.2222226922675 67.1
  endloop
endfacet
facet normal 0 0 1
  outer loop
    vertex -91 -45.5101430169087 67.1
    vertex -87.4201337265282 -46.2222226922675 67.1
    vertex -87.35 -45.5101430169087 67.1
  endloop
endfacet
facet normal .995184726672197 9.80171403295606E-02 0
  outer loop
    vertex -87.35 -45.5101430169087 67
    vertex -87.4201337265282 -44.7980633415498 67.1
    vertex -87.35 -45.5101430169087 67.1
  endloop
endfacet
facet normal .956940335732207 .290284677254467 0
  outer loop
    vertex -87.4201337265282 -44.7980633415498 67
    vertex -87.6278397063338 -44.1133484887761 67.1
    vertex -87.4201337265282 -44.7980633415498 67.1
  endloop
endfacet
facet normal .881921264348369 .471396736825972 0
  outer loop
    vertex -87.6278397063338 -44.1133484887761 67
    vertex -87.9651359150957 -43.4823116663871 67.1
    vertex -87.6278397063338 -44.1133484887761 67.1
  endloop
endfacet
facet normal .773010453362705 .634393284163684 0
  outer loop
    vertex -87.9651359150957 -43.4823116663871 67
    vertex -88.4190602486691 -42.9292032655778 67.1
    vertex -87.9651359150957 -43.4823116663871 67.1
  endloop
endfacet
facet normal .63439328416368 .773010453362709 0
  outer loop
    vertex -88.4190602486691 -42.9292032655778 67
    vertex -88.9721686494784 -42.4752789320044 67.1
    vertex -88.4190602486691 -42.9292032655778 67.1
  endloop
endfacet
facet normal .471396736825976 .881921264348366 0
  outer loop
    vertex -88.9721686494784 -42.4752789320044 67
    vertex -89.6032054718674 -42.1379827232425 67.1
    vertex -88.9721686494784 -42.4752789320044 67.1
  endloop
endfacet
facet normal .290284677254473 .956940335732206 0
  outer loop
    vertex -89.6032054718674 -42.1379827232425 67
    vertex -90.2879203246411 -41.9302767434369 67.1
    vertex -89.6032054718674 -42.1379827232425 67.1
  endloop
endfacet
facet normal 9.80171403295419E-02 .995184726672199 0
  outer loop
    vertex -90.2879203246411 -41.9302767434369 67
    vertex -91 -41.8601430169087 67.1
    vertex -90.2879203246411 -41.9302767434369 67.1
  endloop
endfacet
facet normal -9.80171403295419E-02 .995184726672199 0
  outer loop
    vertex -91 -41.8601430169087 67
    vertex -91.7120796753589 -41.9302767434369 67.1
    vertex -91 -41.8601430169087 67.1
  endloop
endfacet
facet normal -.290284677254473 .956940335732206 0
  outer loop
    vertex -91.7120796753589 -41.9302767434369 67
    vertex -92.3967945281326 -42.1379827232425 67.1
    vertex -91.7120796753589 -41.9302767434369 67.1
  endloop
endfacet
facet normal -.471396736825976 .881921264348366 0
  outer loop
    vertex -92.3967945281326 -42.1379827232425 67
    vertex -93.0278313505216 -42.4752789320044 67.1
    vertex -92.3967945281326 -42.1379827232425 67.1
  endloop
endfacet
facet normal -.63439328416368 .773010453362709 0
  outer loop
    vertex -93.0278313505216 -42.4752789320044 67
    vertex -93.5809397513309 -42.9292032655778 67.1
    vertex -93.0278313505216 -42.4752789320044 67.1
  endloop
endfacet
facet normal -.773010453362705 .634393284163684 0
  outer loop
    vertex -93.5809397513309 -42.9292032655778 67
    vertex -94.0348640849043 -43.4823116663871 67.1
    vertex -93.5809397513309 -42.9292032655778 67.1
  endloop
endfacet
facet normal -.881921264348369 .471396736825972 0
  outer loop
    vertex -94.0348640849043 -43.4823116663871 67
    vertex -94.3721602936662 -44.1133484887761 67.1
    vertex -94.0348640849043 -43.4823116663871 67.1
  endloop
endfacet
facet normal -.956940335732207 .290284677254467 0
  outer loop
    vertex -94.3721602936662 -44.1133484887761 67
    vertex -94.5798662734718 -44.7980633415498 67.1
    vertex -94.3721602936662 -44.1133484887761 67.1
  endloop
endfacet
facet normal -.995184726672197 9.80171403295606E-02 0
  outer loop
    vertex -94.5798662734718 -44.7980633415498 67
    vertex -94.65 -45.5101430169087 67.1
    vertex -94.5798662734718 -44.7980633415498 67.1
  endloop
endfacet
facet normal -.995184726672196 -9.80171403295742E-02 0
  outer loop
    vertex -94.65 -45.5101430169087 67
    vertex -94.5798662734718 -46.2222226922675 67.1
    vertex -94.65 -45.5101430169087 67.1
  endloop
endfacet
facet normal -.956940335732219 -.290284677254428 0
  outer loop
    vertex -94.5798662734718 -46.2222226922675 67
    vertex -94.3721602936662 -46.9069375450413 67.1
    vertex -94.5798662734718 -46.2222226922675 67.1
  endloop
endfacet
facet normal -.881921264348338 -.47139673682603 0
  outer loop
    vertex -94.3721602936662 -46.9069375450413 67
    vertex -94.0348640849043 -47.5379743674302 67.1
    vertex -94.3721602936662 -46.9069375450413 67.1
  endloop
endfacet
facet normal -.773010453362761 -.634393284163616 0
  outer loop
    vertex -94.0348640849043 -47.5379743674302 67
    vertex -93.5809397513309 -48.0910827682396 67.1
    vertex -94.0348640849043 -47.5379743674302 67.1
  endloop
endfacet
facet normal -.63439328416368 -.773010453362709 0
  outer loop
    vertex -93.5809397513309 -48.0910827682396 67
    vertex -93.0278313505216 -48.545007101813 67.1
    vertex -93.5809397513309 -48.0910827682396 67.1
  endloop
endfacet
facet normal -.471396736825976 -.881921264348366 0
  outer loop
    vertex -93.0278313505216 -48.545007101813 67
    vertex -92.3967945281326 -48.8823033105749 67.1
    vertex -93.0278313505216 -48.545007101813 67.1
  endloop
endfacet
facet normal -.290284677254473 -.956940335732206 0
  outer loop
    vertex -92.3967945281326 -48.8823033105749 67
    vertex -91.7120796753589 -49.0900092903805 67.1
    vertex -92.3967945281326 -48.8823033105749 67.1
  endloop
endfacet
facet normal -9.80171403295419E-02 -.995184726672199 0
  outer loop
    vertex -91.7120796753589 -49.0900092903805 67
    vertex -91 -49.1601430169087 67.1
    vertex -91.7120796753589 -49.0900092903805 67.1
  endloop
endfacet
facet normal 9.80171403295419E-02 -.995184726672199 0
  outer loop
    vertex -91 -49.1601430169087 67
    vertex -90.2879203246411 -49.0900092903805 67.1
    vertex -91 -49.1601430169087 67.1
  endloop
endfacet
facet normal .290284677254473 -.956940335732206 0
  outer loop
    vertex -90.2879203246411 -49.0900092903805 67
    vertex -89.6032054718674 -48.8823033105749 67.1
    vertex -90.2879203246411 -49.0900092903805 67.1
  endloop
endfacet
facet normal .471396736825976 -.881921264348366 0
  outer loop
    vertex -89.6032054718674 -48.8823033105749 67
    vertex -88.9721686494784 -48.545007101813 67.1
    vertex -89.6032054718674 -48.8823033105749 67.1
  endloop
endfacet
facet normal .63439328416368 -.773010453362709 0
  outer loop
    vertex -88.9721686494784 -48.545007101813 67
    vertex -88.4190602486691 -48.0910827682396 67.1
    vertex -88.9721686494784 -48.545007101813 67.1
  endloop
endfacet
facet normal .773010453362761 -.634393284163616 0
  outer loop
    vertex -88.4190602486691 -48.0910827682396 67
    vertex -87.9651359150957 -47.5379743674302 67.1
    vertex -88.4190602486691 -48.0910827682396 67.1
  endloop
endfacet
facet normal .881921264348338 -.47139673682603 0
  outer loop
    vertex -87.9651359150957 -47.5379743674302 67
    vertex -87.6278397063338 -46.9069375450413 67.1
    vertex -87.9651359150957 -47.5379743674302 67.1
  endloop
endfacet
facet normal .956940335732219 -.290284677254428 0
  outer loop
    vertex -87.6278397063338 -46.9069375450413 67
    vertex -87.4201337265282 -46.2222226922675 67.1
    vertex -87.6278397063338 -46.9069375450413 67.1
  endloop
endfacet
facet normal .995184726672196 -9.80171403295742E-02 0
  outer loop
    vertex -87.4201337265282 -46.2222226922675 67
    vertex -87.35 -45.5101430169087 67.1
    vertex -87.4201337265282 -46.2222226922675 67.1
  endloop
endfacet
facet normal .995184726672197 9.80171403295606E-02 0
  outer loop
    vertex -87.4201337265282 -44.7980633415498 67
    vertex -87.4201337265282 -44.7980633415498 67.1
    vertex -87.35 -45.5101430169087 67
  endloop
endfacet
facet normal .956940335732207 .290284677254467 0
  outer loop
    vertex -87.6278397063338 -44.1133484887761 67
    vertex -87.6278397063338 -44.1133484887761 67.1
    vertex -87.4201337265282 -44.7980633415498 67
  endloop
endfacet
facet normal .881921264348369 .471396736825972 0
  outer loop
    vertex -87.9651359150957 -43.4823116663871 67
    vertex -87.9651359150957 -43.4823116663871 67.1
    vertex -87.6278397063338 -44.1133484887761 67
  endloop
endfacet
facet normal .773010453362705 .634393284163684 0
  outer loop
    vertex -88.4190602486691 -42.9292032655778 67
    vertex -88.4190602486691 -42.9292032655778 67.1
    vertex -87.9651359150957 -43.4823116663871 67
  endloop
endfacet
facet normal .63439328416368 .773010453362709 0
  outer loop
    vertex -88.9721686494784 -42.4752789320044 67
    vertex -88.9721686494784 -42.4752789320044 67.1
    vertex -88.4190602486691 -42.9292032655778 67
  endloop
endfacet
facet normal .471396736825976 .881921264348366 0
  outer loop
    vertex -89.6032054718674 -42.1379827232425 67
    vertex -89.6032054718674 -42.1379827232425 67.1
    vertex -88.9721686494784 -42.4752789320044 67
  endloop
endfacet
facet normal .290284677254473 .956940335732206 0
  outer loop
    vertex -90.2879203246411 -41.9302767434369 67
    vertex -90.2879203246411 -41.9302767434369 67.1
    vertex -89.6032054718674 -42.1379827232425 67
  endloop
endfacet
facet normal 9.80171403295419E-02 .995184726672199 0
  outer loop
    vertex -91 -41.8601430169087 67
    vertex -91 -41.8601430169087 67.1
    vertex -90.2879203246411 -41.9302767434369 67
  endloop
endfacet
facet normal -9.80171403295419E-02 .995184726672199 0
  outer loop
    vertex -91.7120796753589 -41.9302767434369 67
    vertex -91.7120796753589 -41.9302767434369 67.1
    vertex -91 -41.8601430169087 67
  endloop
endfacet
facet normal -.290284677254473 .956940335732206 0
  outer loop
    vertex -92.3967945281326 -42.1379827232425 67
    vertex -92.3967945281326 -42.1379827232425 67.1
    vertex -91.7120796753589 -41.9302767434369 67
  endloop
endfacet
facet normal -.471396736825976 .881921264348366 0
  outer loop
    vertex -93.0278313505216 -42.4752789320044 67
    vertex -93.0278313505216 -42.4752789320044 67.1
    vertex -92.3967945281326 -42.1379827232425 67
  endloop
endfacet
facet normal -.63439328416368 .773010453362709 0
  outer loop
    vertex -93.5809397513309 -42.9292032655778 67
    vertex -93.5809397513309 -42.9292032655778 67.1
    vertex -93.0278313505216 -42.4752789320044 67
  endloop
endfacet
facet normal -.773010453362705 .634393284163684 0
  outer loop
    vertex -94.0348640849043 -43.4823116663871 67
    vertex -94.0348640849043 -43.4823116663871 67.1
    vertex -93.5809397513309 -42.9292032655778 67
  endloop
endfacet
facet normal -.881921264348369 .471396736825972 0
  outer loop
    vertex -94.3721602936662 -44.1133484887761 67
    vertex -94.3721602936662 -44.1133484887761 67.1
    vertex -94.0348640849043 -43.4823116663871 67
  endloop
endfacet
facet normal -.956940335732207 .290284677254467 0
  outer loop
    vertex -94.5798662734718 -44.7980633415498 67
    vertex -94.5798662734718 -44.7980633415498 67.1
    vertex -94.3721602936662 -44.1133484887761 67
  endloop
endfacet
facet normal -.995184726672197 9.80171403295606E-02 0
  outer loop
    vertex -94.65 -45.5101430169087 67
    vertex -94.65 -45.5101430169087 67.1
    vertex -94.5798662734718 -44.7980633415498 67
  endloop
endfacet
facet normal -.995184726672196 -9.80171403295742E-02 0
  outer loop
    vertex -94.5798662734718 -46.2222226922675 67
    vertex -94.5798662734718 -46.2222226922675 67.1
    vertex -94.65 -45.5101430169087 67
  endloop
endfacet
facet normal -.956940335732219 -.290284677254428 0
  outer loop
    vertex -94.3721602936662 -46.9069375450413 67
    vertex -94.3721602936662 -46.9069375450413 67.1
    vertex -94.5798662734718 -46.2222226922675 67
  endloop
endfacet
facet normal -.881921264348338 -.47139673682603 0
  outer loop
    vertex -94.0348640849043 -47.5379743674302 67
    vertex -94.0348640849043 -47.5379743674302 67.1
    vertex -94.3721602936662 -46.9069375450413 67
  endloop
endfacet
facet normal -.773010453362761 -.634393284163616 0
  outer loop
    vertex -93.5809397513309 -48.0910827682396 67
    vertex -93.5809397513309 -48.0910827682396 67.1
    vertex -94.0348640849043 -47.5379743674302 67
  endloop
endfacet
facet normal -.63439328416368 -.773010453362709 0
  outer loop
    vertex -93.0278313505216 -48.545007101813 67
    vertex -93.0278313505216 -48.545007101813 67.1
    vertex -93.5809397513309 -48.0910827682396 67
  endloop
endfacet
facet normal -.471396736825976 -.881921264348366 0
  outer loop
    vertex -92.3967945281326 -48.8823033105749 67
    vertex -92.3967945281326 -48.8823033105749 67.1
    vertex -93.0278313505216 -48.545007101813 67
  endloop
endfacet
facet normal -.290284677254473 -.956940335732206 0
  outer loop
    vertex -91.7120796753589 -49.0900092903805 67
    vertex -91.7120796753589 -49.0900092903805 67.1
    vertex -92.3967945281326 -48.8823033105749 67
  endloop
endfacet
facet normal -9.80171403295419E-02 -.995184726672199 0
  outer loop
    vertex -91 -49.1601430169087 67
    vertex -91 -49.1601430169087 67.1
    vertex -91.7120796753589 -49.0900092903805 67
  endloop
endfacet
facet normal 9.80171403295419E-02 -.995184726672199 0
  outer loop
    vertex -90.2879203246411 -49.0900092903805 67
    vertex -90.2879203246411 -49.0900092903805 67.1
    vertex -91 -49.1601430169087 67
  endloop
endfacet
facet normal .290284677254473 -.956940335732206 0
  outer loop
    vertex -89.6032054718674 -48.8823033105749 67
    vertex -89.6032054718674 -48.8823033105749 67.1
    vertex -90.2879203246411 -49.0900092903805 67
  endloop
endfacet
facet normal .471396736825976 -.881921264348366 0
  outer loop
    vertex -88.9721686494784 -48.545007101813 67
    vertex -88.9721686494784 -48.545007101813 67.1
    vertex -89.6032054718674 -48.8823033105749 67
  endloop
endfacet
facet normal .63439328416368 -.773010453362709 0
  outer loop
    vertex -88.4190602486691 -48.0910827682396 67
    vertex -88.4190602486691 -48.0910827682396 67.1
    vertex -88.9721686494784 -48.545007101813 67
  endloop
endfacet
facet normal .773010453362761 -.634393284163616 0
  outer loop
    vertex -87.9651359150957 -47.5379743674302 67
    vertex -87.9651359150957 -47.5379743674302 67.1
    vertex -88.4190602486691 -48.0910827682396 67
  endloop
endfacet
facet normal .881921264348338 -.47139673682603 0
  outer loop
    vertex -87.6278397063338 -46.9069375450413 67
    vertex -87.6278397063338 -46.9069375450413 67.1
    vertex -87.9651359150957 -47.5379743674302 67
  endloop
endfacet
facet normal .956940335732219 -.290284677254428 0
  outer loop
    vertex -87.4201337265282 -46.2222226922675 67
    vertex -87.4201337265282 -46.2222226922675 67.1
    vertex -87.6278397063338 -46.9069375450413 67
  endloop
endfacet
facet normal .995184726672196 -9.80171403295742E-02 0
  outer loop
    vertex -87.35 -45.5101430169087 67
    vertex -87.35 -45.5101430169087 67.1
    vertex -87.4201337265282 -46.2222226922675 67
  endloop
endfacet
facet normal 0 0 1
  outer loop
    vertex 119.363713973953 60.3637139739531 67
    vertex -119.363713973953 -60.3637139739531 67
    vertex 119.363713973953 -60.3637139739531 67
  endloop
endfacet
facet normal 0 0 1
  outer loop
    vertex 119.363713973953 60.3637139739531 67
    vertex -119.363713973953 60.3637139739531 67
    vertex -119.363713973953 -60.3637139739531 67
  endloop
endfacet
facet normal 0 0 -1
  outer loop
    vertex -119.363713973953 -60.3637139739531 0
    vertex 119.363713973953 60.3637139739531 0
    vertex 119.363713973953 -60.3637139739531 0
  endloop
endfacet
facet normal 0 0 -1
  outer loop
    vertex 119.363713973953 60.3637139739531 0
    vertex -119.363713973953 -60.3637139739531 0
    vertex -119.363713973953 60.3637139739531 0
  endloop
endfacet
facet normal .933512446470884 0 .35854499338848
  outer loop
    vertex 119.363713973953 60.3637139739531 67
    vertex 132 -73 34.1
    vertex 132 73 34.1
  endloop
endfacet
facet normal 0 -.933512446470885 .358544993388477
  outer loop
    vertex 119.363713973953 -60.3637139739531 67
    vertex -132 -73 34.1
    vertex 132 -73 34.1
  endloop
endfacet
facet normal -.933512446470884 0 .35854499338848
  outer loop
    vertex -119.363713973953 -60.3637139739531 67
    vertex -132 73 34.1
    vertex -132 -73 34.1
  endloop
endfacet
facet normal 0 .933512446470885 .358544993388477
  outer loop
    vertex -119.363713973953 60.3637139739531 67
    vertex 132 73 34.1
    vertex -132 73 34.1
  endloop
endfacet
facet normal 1 0 0
  outer loop
    vertex 132 73 34.1
    vertex 132 -73 26.9
    vertex 132 73 26.9
  endloop
endfacet
facet normal 0 -1 0
  outer loop
    vertex 132 -73 34.1
    vertex -132 -73 26.9
    vertex 132 -73 26.9
  endloop
endfacet
facet normal -1 0 0
  outer loop
    vertex -132 -73 34.1
    vertex -132 73 26.9
    vertex -132 -73 26.9
  endloop
endfacet
facet normal 0 1 0
  outer loop
    vertex -132 73 34.1
    vertex 132 73 26.9
    vertex -132 73 26.9
  endloop
endfacet
facet normal .905110648297169 0 -.425176098033601
  outer loop
    vertex 132 73 26.9
    vertex 119.363713973953 -60.3637139739531 0
    vertex 119.363713973953 60.3637139739531 0
  endloop
endfacet
facet normal 0 -.90511064829717 -.425176098033598
  outer loop
    vertex 132 -73 26.9
    vertex -119.363713973953 -60.3637139739531 0
    vertex 119.363713973953 -60.3637139739531 0
  endloop
endfacet
facet normal -.905110648297169 0 -.425176098033601
  outer loop
    vertex -132 -73 26.9
    vertex -119.363713973953 60.3637139739531 0
    vertex -119.363713973953 -60.3637139739531 0
  endloop
endfacet
facet normal 0 .90511064829717 -.425176098033598
  outer loop
    vertex -132 73 26.9
    vertex 119.363713973953 60.3637139739531 0
    vertex -119.363713973953 60.3637139739531 0
  endloop
endfacet
facet normal .933512446470884 0 .35854499338848
  outer loop
    vertex 119.363713973953 60.3637139739531 67
    vertex 119.363713973953 -60.3637139739531 67
    vertex 132 -73 34.1
  endloop
endfacet
facet normal 0 -.933512446470885 .358544993388477
  outer loop
    vertex 119.363713973953 -60.3637139739531 67
    vertex -119.363713973953 -60.3637139739531 67
    vertex -132 -73 34.1
  endloop
endfacet
facet normal -.933512446470884 0 .35854499338848
  outer loop
    vertex -119.363713973953 -60.3637139739531 67
    vertex -119.363713973953 60.3637139739531 67
    vertex -132 73 34.1
  endloop
endfacet
facet normal 0 .933512446470885 .358544993388477
  outer loop
    vertex -119.363713973953 60.3637139739531 67
    vertex 119.363713973953 60.3637139739531 67
    vertex 132 73 34.1
  endloop
endfacet
facet normal 1 0 0
  outer loop
    vertex 132 73 34.1
    vertex 132 -73 34.1
    vertex 132 -73 26.9
  endloop
endfacet
facet normal 0 -1 0
  outer loop
    vertex 132 -73 34.1
    vertex -132 -73 34.1
    vertex -132 -73 26.9
  endloop
endfacet
facet normal -1 0 0
  outer loop
    vertex -132 -73 34.1
    vertex -132 73 34.1
    vertex -132 73 26.9
  endloop
endfacet
facet normal 0 1 0
  outer loop
    vertex -132 73 34.1
    vertex 132 73 34.1
    vertex 132 73 26.9
  endloop
endfacet
facet normal .905110648297169 0 -.425176098033601
  outer loop
    vertex 132 73 26.9
    vertex 132 -73 26.9
    vertex 119.363713973953 -60.3637139739531 0
  endloop
endfacet
facet normal 0 -.90511064829717 -.425176098033598
  outer loop
    vertex 132 -73 26.9
    vertex -132 -73 26.9
    vertex -119.363713973953 -60.3637139739531 0
  endloop
endfacet
facet normal -.905110648297169 0 -.425176098033601
  outer loop
    vertex -132 -73 26.9
    vertex -132 73 26.9
    vertex -119.363713973953 60.3637139739531 0
  endloop
endfacet
facet normal 0 .90511064829717 -.425176098033598
  outer loop
    vertex -132 73 26.9
    vertex 132 73 26.9
    vertex 119.363713973953 60.3637139739531 0
  endloop
endfacet
facet normal 0 -1 0
  outer loop
    vertex 74.5 -143.5 6
    vertex 74.5 -143.5 0
    vertex 107.5 -143.5 0
  endloop
endfacet
facet normal 0 -1 0
  outer loop
    vertex 74.5 -143.5 6
    vertex 107.5 -143.5 0
    vertex 107.5 -143.5 6
  endloop
endfacet
facet normal 0 1 0
  outer loop
    vertex 107.5 -73 33.5
    vertex 107.5 -73 27.5
    vertex 74.5 -73 27.5
  endloop
endfacet
facet normal 0 1 0
  outer loop
    vertex 107.5 -73 33.5
    vertex 74.5 -73 27.5
    vertex 74.5 -73 33.5
  endloop
endfacet
facet normal -1 0 0
  outer loop
    vertex 74.5 -73 27.5
    vertex 74.5 -90.0257209262042 27.5
    vertex 74.5 -93.0257209262042 33.5
  endloop
endfacet
facet normal -1 0 0
  outer loop
    vertex 74.5 -90.0257209262042 27.5
    vertex 74.5 -106.15 0
    vertex 74.5 -109.15 6
  endloop
endfacet
facet normal -1 0 0
  outer loop
    vertex 74.5 -106.15 0
    vertex 74.5 -143.5 0
    vertex 74.5 -143.5 6
  endloop
endfacet
facet normal -1 0 0
  outer loop
    vertex 74.5 -73 27.5
    vertex 74.5 -93.0257209262042 33.5
    vertex 74.5 -73 33.5
  endloop
endfacet
facet normal -1 0 0
  outer loop
    vertex 74.5 -90.0257209262042 27.5
    vertex 74.5 -109.15 6
    vertex 74.5 -93.0257209262042 33.5
  endloop
endfacet
facet normal -1 0 0
  outer loop
    vertex 74.5 -106.15 0
    vertex 74.5 -143.5 6
    vertex 74.5 -109.15 6
  endloop
endfacet
facet normal 1 0 0
  outer loop
    vertex 107.5 -73 27.5
    vertex 107.5 -93.0257209262042 33.5
    vertex 107.5 -90.0257209262042 27.5
  endloop
endfacet
facet normal 1 0 0
  outer loop
    vertex 107.5 -90.0257209262042 27.5
    vertex 107.5 -109.15 6
    vertex 107.5 -106.15 0
  endloop
endfacet
facet normal 1 0 0
  outer loop
    vertex 107.5 -106.15 0
    vertex 107.5 -143.5 6
    vertex 107.5 -143.5 0
  endloop
endfacet
facet normal 1 0 0
  outer loop
    vertex 107.5 -73 27.5
    vertex 107.5 -73 33.5
    vertex 107.5 -93.0257209262042 33.5
  endloop
endfacet
facet normal 1 0 0
  outer loop
    vertex 107.5 -90.0257209262042 27.5
    vertex 107.5 -93.0257209262042 33.5
    vertex 107.5 -109.15 6
  endloop
endfacet
facet normal 1 0 0
  outer loop
    vertex 107.5 -106.15 0
    vertex 107.5 -109.15 6
    vertex 107.5 -143.5 6
  endloop
endfacet
facet normal 0 0 1
  outer loop
    vertex 74.5 -73 33.5
    vertex 74.5 -93.0257209262042 33.5
    vertex 107.5 -93.0257209262042 33.5
  endloop
endfacet
facet normal 0 -.862648842003344 .50580329713268
  outer loop
    vertex 74.5 -93.0257209262042 33.5
    vertex 74.5 -109.15 6
    vertex 107.5 -109.15 6
  endloop
endfacet
facet normal 0 0 1
  outer loop
    vertex 74.5 -109.15 6
    vertex 74.5 -143.5 6
    vertex 107.5 -143.5 6
  endloop
endfacet
facet normal 0 0 1
  outer loop
    vertex 74.5 -73 33.5
    vertex 107.5 -93.0257209262042 33.5
    vertex 107.5 -73 33.5
  endloop
endfacet
facet normal 0 -.862648842003344 .50580329713268
  outer loop
    vertex 74.5 -93.0257209262042 33.5
    vertex 107.5 -109.15 6
    vertex 107.5 -93.0257209262042 33.5
  endloop
endfacet
facet normal 0 0 1
  outer loop
    vertex 74.5 -109.15 6
    vertex 107.5 -143.5 6
    vertex 107.5 -109.15 6
  endloop
endfacet
facet normal 0 0 -1
  outer loop
    vertex 74.5 -73 27.5
    vertex 107.5 -90.0257209262042 27.5
    vertex 74.5 -90.0257209262042 27.5
  endloop
endfacet
facet normal 0 .862648842003344 -.50580329713268
  outer loop
    vertex 74.5 -90.0257209262042 27.5
    vertex 107.5 -106.15 0
    vertex 74.5 -106.15 0
  endloop
endfacet
facet normal 0 0 -1
  outer loop
    vertex 74.5 -106.15 0
    vertex 107.5 -143.5 0
    vertex 74.5 -143.5 0
  endloop
endfacet
facet normal 0 0 -1
  outer loop
    vertex 74.5 -73 27.5
    vertex 107.5 -73 27.5
    vertex 107.5 -90.0257209262042 27.5
  endloop
endfacet
facet normal 0 .862648842003344 -.50580329713268
  outer loop
    vertex 74.5 -90.0257209262042 27.5
    vertex 107.5 -90.0257209262042 27.5
    vertex 107.5 -106.15 0
  endloop
endfacet
facet normal 0 0 -1
  outer loop
    vertex 74.5 -106.15 0
    vertex 107.5 -106.15 0
    vertex 107.5 -143.5 0
  endloop
endfacet
facet normal 0 -1 0
  outer loop
    vertex -16.5 -143.5 6
    vertex -16.5 -143.5 0
    vertex 16.5 -143.5 0
  endloop
endfacet
facet normal 0 -1 0
  outer loop
    vertex -16.5 -143.5 6
    vertex 16.5 -143.5 0
    vertex 16.5 -143.5 6
  endloop
endfacet
facet normal 0 1 0
  outer loop
    vertex 16.5000000000001 -73 33.5
    vertex 16.5000000000001 -73 27.5
    vertex -16.5 -73 27.5
  endloop
endfacet
facet normal 0 1 0
  outer loop
    vertex 16.5000000000001 -73 33.5
    vertex -16.5 -73 27.5
    vertex -16.5 -73 33.5
  endloop
endfacet
facet normal -1 0 0
  outer loop
    vertex -16.5 -73 27.5
    vertex -16.5 -90.0257209262042 27.5
    vertex -16.5 -93.0257209262042 33.5
  endloop
endfacet
facet normal -1 0 0
  outer loop
    vertex -16.5 -90.0257209262042 27.5
    vertex -16.5 -106.15 0
    vertex -16.5 -109.15 6
  endloop
endfacet
facet normal -1 0 0
  outer loop
    vertex -16.5 -106.15 0
    vertex -16.5 -143.5 0
    vertex -16.5 -143.5 6
  endloop
endfacet
facet normal -1 0 0
  outer loop
    vertex -16.5 -73 27.5
    vertex -16.5 -93.0257209262042 33.5
    vertex -16.5 -73 33.5
  endloop
endfacet
facet normal -1 0 0
  outer loop
    vertex -16.5 -90.0257209262042 27.5
    vertex -16.5 -109.15 6
    vertex -16.5 -93.0257209262042 33.5
  endloop
endfacet
facet normal -1 0 0
  outer loop
    vertex -16.5 -106.15 0
    vertex -16.5 -143.5 6
    vertex -16.5 -109.15 6
  endloop
endfacet
facet normal 1 -5.84268844988003E-15 -2.92134422494002E-15
  outer loop
    vertex 16.5000000000001 -73 27.5
    vertex 16.5 -93.0257209262042 33.5
    vertex 16.5 -90.0257209262042 27.5
  endloop
endfacet
facet normal 1 0 0
  outer loop
    vertex 16.5 -90.0257209262042 27.5
    vertex 16.5 -109.15 6
    vertex 16.5 -106.15 0
  endloop
endfacet
facet normal 1 0 0
  outer loop
    vertex 16.5 -106.15 0
    vertex 16.5 -143.5 6
    vertex 16.5 -143.5 0
  endloop
endfacet
facet normal 1 -4.96741082995154E-15 0
  outer loop
    vertex 16.5000000000001 -73 27.5
    vertex 16.5000000000001 -73 33.5
    vertex 16.5 -93.0257209262042 33.5
  endloop
endfacet
facet normal 1 0 0
  outer loop
    vertex 16.5 -90.0257209262042 27.5
    vertex 16.5 -93.0257209262042 33.5
    vertex 16.5 -109.15 6
  endloop
endfacet
facet normal 1 0 0
  outer loop
    vertex 16.5 -106.15 0
    vertex 16.5 -109.15 6
    vertex 16.5 -143.5 6
  endloop
endfacet
facet normal 0 0 1
  outer loop
    vertex -16.5 -73 33.5
    vertex -16.5 -93.0257209262042 33.5
    vertex 16.5 -93.0257209262042 33.5
  endloop
endfacet
facet normal 0 -.862648842003344 .50580329713268
  outer loop
    vertex -16.5 -93.0257209262042 33.5
    vertex -16.5 -109.15 6
    vertex 16.5 -109.15 6
  endloop
endfacet
facet normal 0 0 1
  outer loop
    vertex -16.5 -109.15 6
    vertex -16.5 -143.5 6
    vertex 16.5 -143.5 6
  endloop
endfacet
facet normal 0 0 1
  outer loop
    vertex -16.5 -73 33.5
    vertex 16.5 -93.0257209262042 33.5
    vertex 16.5000000000001 -73 33.5
  endloop
endfacet
facet normal 0 -.862648842003344 .50580329713268
  outer loop
    vertex -16.5 -93.0257209262042 33.5
    vertex 16.5 -109.15 6
    vertex 16.5 -93.0257209262042 33.5
  endloop
endfacet
facet normal 0 0 1
  outer loop
    vertex -16.5 -109.15 6
    vertex 16.5 -143.5 6
    vertex 16.5 -109.15 6
  endloop
endfacet
facet normal 0 0 -1
  outer loop
    vertex -16.5 -73 27.5
    vertex 16.5 -90.0257209262042 27.5
    vertex -16.5 -90.0257209262042 27.5
  endloop
endfacet
facet normal 0 .862648842003344 -.50580329713268
  outer loop
    vertex -16.5 -90.0257209262042 27.5
    vertex 16.5 -106.15 0
    vertex -16.5 -106.15 0
  endloop
endfacet
facet normal 0 0 -1
  outer loop
    vertex -16.5 -106.15 0
    vertex 16.5 -143.5 0
    vertex -16.5 -143.5 0
  endloop
endfacet
facet normal 0 0 -1
  outer loop
    vertex -16.5 -73 27.5
    vertex 16.5000000000001 -73 27.5
    vertex 16.5 -90.0257209262042 27.5
  endloop
endfacet
facet normal 0 .862648842003344 -.50580329713268
  outer loop
    vertex -16.5 -90.0257209262042 27.5
    vertex 16.5 -90.0257209262042 27.5
    vertex 16.5 -106.15 0
  endloop
endfacet
facet normal 0 0 -1
  outer loop
    vertex -16.5 -106.15 0
    vertex 16.5 -106.15 0
    vertex 16.5 -143.5 0
  endloop
endfacet
facet normal 0 -1 0
  outer loop
    vertex -107.5 -143.5 6
    vertex -107.5 -143.5 0
    vertex -74.5 -143.5 0
  endloop
endfacet
facet normal 0 -1 0
  outer loop
    vertex -107.5 -143.5 6
    vertex -74.5 -143.5 0
    vertex -74.5 -143.5 6
  endloop
endfacet
facet normal 0 1 0
  outer loop
    vertex -74.4999999999999 -73 33.5
    vertex -74.4999999999999 -73 27.5
    vertex -107.5 -73 27.5
  endloop
endfacet
facet normal 0 1 0
  outer loop
    vertex -74.4999999999999 -73 33.5
    vertex -107.5 -73 27.5
    vertex -107.5 -73 33.5
  endloop
endfacet
facet normal -1 0 0
  outer loop
    vertex -107.5 -73 27.5
    vertex -107.5 -90.0257209262042 27.5
    vertex -107.5 -93.0257209262042 33.5
  endloop
endfacet
facet normal -1 0 0
  outer loop
    vertex -107.5 -90.0257209262042 27.5
    vertex -107.5 -106.15 0
    vertex -107.5 -109.15 6
  endloop
endfacet
facet normal -1 0 0
  outer loop
    vertex -107.5 -106.15 0
    vertex -107.5 -143.5 0
    vertex -107.5 -143.5 6
  endloop
endfacet
facet normal -1 0 0
  outer loop
    vertex -107.5 -73 27.5
    vertex -107.5 -93.0257209262042 33.5
    vertex -107.5 -73 33.5
  endloop
endfacet
facet normal -1 0 0
  outer loop
    vertex -107.5 -90.0257209262042 27.5
    vertex -107.5 -109.15 6
    vertex -107.5 -93.0257209262042 33.5
  endloop
endfacet
facet normal -1 0 0
  outer loop
    vertex -107.5 -106.15 0
    vertex -107.5 -143.5 6
    vertex -107.5 -109.15 6
  endloop
endfacet
facet normal 1 -5.84268844988003E-15 -2.92134422494002E-15
  outer loop
    vertex -74.4999999999999 -73 27.5
    vertex -74.5 -93.0257209262042 33.5
    vertex -74.5 -90.0257209262042 27.5
  endloop
endfacet
facet normal 1 0 0
  outer loop
    vertex -74.5 -90.0257209262042 27.5
    vertex -74.5 -109.15 6
    vertex -74.5 -106.15 0
  endloop
endfacet
facet normal 1 0 0
  outer loop
    vertex -74.5 -106.15 0
    vertex -74.5 -143.5 6
    vertex -74.5 -143.5 0
  endloop
endfacet
facet normal 1 -4.96741082995154E-15 0
  outer loop
    vertex -74.4999999999999 -73 27.5
    vertex -74.4999999999999 -73 33.5
    vertex -74.5 -93.0257209262042 33.5
  endloop
endfacet
facet normal 1 0 0
  outer loop
    vertex -74.5 -90.0257209262042 27.5
    vertex -74.5 -93.0257209262042 33.5
    vertex -74.5 -109.15 6
  endloop
endfacet
facet normal 1 0 0
  outer loop
    vertex -74.5 -106.15 0
    vertex -74.5 -109.15 6
    vertex -74.5 -143.5 6
  endloop
endfacet
facet normal 0 0 1
  outer loop
    vertex -107.5 -73 33.5
    vertex -107.5 -93.0257209262042 33.5
    vertex -74.5 -93.0257209262042 33.5
  endloop
endfacet
facet normal 0 -.862648842003344 .50580329713268
  outer loop
    vertex -107.5 -93.0257209262042 33.5
    vertex -107.5 -109.15 6
    vertex -74.5 -109.15 6
  endloop
endfacet
facet normal 0 0 1
  outer loop
    vertex -107.5 -109.15 6
    vertex -107.5 -143.5 6
    vertex -74.5 -143.5 6
  endloop
endfacet
facet normal 0 0 1
  outer loop
    vertex -107.5 -73 33.5
    vertex -74.5 -93.0257209262042 33.5
    vertex -74.4999999999999 -73 33.5
  endloop
endfacet
facet normal 0 -.862648842003344 .50580329713268
  outer loop
    vertex -107.5 -93.0257209262042 33.5
    vertex -74.5 -109.15 6
    vertex -74.5 -93.0257209262042 33.5
  endloop
endfacet
facet normal 0 0 1
  outer loop
    vertex -107.5 -109.15 6
    vertex -74.5 -143.5 6
    vertex -74.5 -109.15 6
  endloop
endfacet
facet normal 0 0 -1
  outer loop
    vertex -107.5 -73 27.5
    vertex -74.5 -90.0257209262042 27.5
    vertex -107.5 -90.0257209262042 27.5
  endloop
endfacet
facet normal 0 .862648842003344 -.50580329713268
  outer loop
    vertex -107.5 -90.0257209262042 27.5
    vertex -74.5 -106.15 0
    vertex -107.5 -106.15 0
  endloop
endfacet
facet normal 0 0 -1
  outer loop
    vertex -107.5 -106.15 0
    vertex -74.5 -143.5 0
    vertex -107.5 -143.5 0
  endloop
endfacet
facet normal 0 0 -1
  outer loop
    vertex -107.5 -73 27.5
    vertex -74.4999999999999 -73 27.5
    vertex -74.5 -90.0257209262042 27.5
  endloop
endfacet
facet normal 0 .862648842003344 -.50580329713268
  outer loop
    vertex -107.5 -90.0257209262042 27.5
    vertex -74.5 -90.0257209262042 27.5
    vertex -74.5 -106.15 0
  endloop
endfacet
facet normal 0 0 -1
  outer loop
    vertex -107.5 -106.15 0
    vertex -74.5 -106.15 0
    vertex -74.5 -143.5 0
  endloop
endfacet
facet normal 0 1 0
  outer loop
    vertex 61 143.5 6
    vertex 61 143.5 0
    vertex -61 143.5 0
  endloop
endfacet
facet normal 0 1 0
  outer loop
    vertex 61 143.5 6
    vertex -61 143.5 0
    vertex -61 143.5 6
  endloop
endfacet
facet normal 0 -1 0
  outer loop
    vertex -61 73 33.5
    vertex -61 73 27.5
    vertex 61 73 27.5
  endloop
endfacet
facet normal 0 -1 0
  outer loop
    vertex -61 73 33.5
    vertex 61 73 27.5
    vertex 61 73 33.5
  endloop
endfacet
facet normal 1 -5.84268844988E-15 1.95006747260089E-14
  outer loop
    vertex 61 73 27.5
    vertex 61.0000000000001 90.0257209262043 27.5
    vertex 61 93.0257209262042 33.5
  endloop
endfacet
facet normal 1 3.32982037024852E-15 -1.66491018512426E-15
  outer loop
    vertex 61.0000000000001 90.0257209262043 27.5
    vertex 61 106.15 0
    vertex 61 109.15 6
  endloop
endfacet
facet normal 1 0 0
  outer loop
    vertex 61 106.15 0
    vertex 61 143.5 0
    vertex 61 143.5 6
  endloop
endfacet
facet normal 1 0 0
  outer loop
    vertex 61 73 27.5
    vertex 61 93.0257209262042 33.5
    vertex 61 73 33.5
  endloop
endfacet
facet normal 1 1.52616766969726E-14 8.94849215258297E-15
  outer loop
    vertex 61.0000000000001 90.0257209262043 27.5
    vertex 61 109.15 6
    vertex 61 93.0257209262042 33.5
  endloop
endfacet
facet normal 1 0 0
  outer loop
    vertex 61 106.15 0
    vertex 61 143.5 6
    vertex 61 109.15 6
  endloop
endfacet
facet normal -1 0 0
  outer loop
    vertex -61 73 27.5
    vertex -61 93.0257209262042 33.5
    vertex -61 90.0257209262042 27.5
  endloop
endfacet
facet normal -1 0 0
  outer loop
    vertex -61 90.0257209262042 27.5
    vertex -61 109.15 6
    vertex -61 106.15 0
  endloop
endfacet
facet normal -1 0 0
  outer loop
    vertex -61 106.15 0
    vertex -61 143.5 6
    vertex -61 143.5 0
  endloop
endfacet
facet normal -1 0 0
  outer loop
    vertex -61 73 27.5
    vertex -61 73 33.5
    vertex -61 93.0257209262042 33.5
  endloop
endfacet
facet normal -1 0 0
  outer loop
    vertex -61 90.0257209262042 27.5
    vertex -61 93.0257209262042 33.5
    vertex -61 109.15 6
  endloop
endfacet
facet normal -1 0 0
  outer loop
    vertex -61 106.15 0
    vertex -61 109.15 6
    vertex -61 143.5 6
  endloop
endfacet
facet normal 0 0 1
  outer loop
    vertex 61 73 33.5
    vertex 61 93.0257209262042 33.5
    vertex -61 93.0257209262042 33.5
  endloop
endfacet
facet normal 0 .862648842003344 .50580329713268
  outer loop
    vertex 61 93.0257209262042 33.5
    vertex 61 109.15 6
    vertex -61 109.15 6
  endloop
endfacet
facet normal 0 0 1
  outer loop
    vertex 61 109.15 6
    vertex 61 143.5 6
    vertex -61 143.5 6
  endloop
endfacet
facet normal 0 0 1
  outer loop
    vertex 61 73 33.5
    vertex -61 93.0257209262042 33.5
    vertex -61 73 33.5
  endloop
endfacet
facet normal 0 .862648842003344 .50580329713268
  outer loop
    vertex 61 93.0257209262042 33.5
    vertex -61 109.15 6
    vertex -61 93.0257209262042 33.5
  endloop
endfacet
facet normal 0 0 1
  outer loop
    vertex 61 109.15 6
    vertex -61 143.5 6
    vertex -61 109.15 6
  endloop
endfacet
facet normal 0 0 -1
  outer loop
    vertex 61 73 27.5
    vertex -61 90.0257209262042 27.5
    vertex 61.0000000000001 90.0257209262043 27.5
  endloop
endfacet
facet normal 0 -.862648842003345 -.505803297132678
  outer loop
    vertex 61.0000000000001 90.0257209262043 27.5
    vertex -61 106.15 0
    vertex 61 106.15 0
  endloop
endfacet
facet normal 0 0 -1
  outer loop
    vertex 61 106.15 0
    vertex -61 143.5 0
    vertex 61 143.5 0
  endloop
endfacet
facet normal 0 0 -1
  outer loop
    vertex 61 73 27.5
    vertex -61 73 27.5
    vertex -61 90.0257209262042 27.5
  endloop
endfacet
facet normal 7.03383947111699E-16 -.862648842003344 -.50580329713268
  outer loop
    vertex 61.0000000000001 90.0257209262043 27.5
    vertex -61 90.0257209262042 27.5
    vertex -61 106.15 0
  endloop
endfacet
facet normal 0 0 -1
  outer loop
    vertex 61 106.15 0
    vertex -61 106.15 0
    vertex -61 143.5 0
  endloop
endfacet
endsolid DCY4
